<svg width="188" height="90" viewBox="0 0 188 90" fill="none" xmlns="http://www.w3.org/2000/svg">
<rect width="188" height="90" fill="#FD9339"/>
<g clip-path="url(#clip0_139_2162)">
<path d="M58.5019 45C58.5019 40.9452 57.1137 37.0091 54.5623 33.8295C52.0108 30.6499 48.4456 28.4131 44.4442 27.4815C40.4428 26.5499 36.2397 26.9781 32.5158 28.6966C28.7919 30.4151 25.7655 33.3234 23.9268 36.9502C22.0882 40.5769 21.545 44.7097 22.3853 48.679C23.2256 52.6483 25.4002 56.2214 28.5567 58.8195C31.7132 61.4177 35.6668 62.8886 39.7768 62.9939C43.8868 63.0993 47.9124 61.8329 51.2015 59.4H39.7886C36.9377 59.3237 34.1718 58.4256 31.8325 56.8166C29.4932 55.2075 27.6829 52.958 26.6252 50.3458C25.5675 47.7336 25.3086 44.8731 25.8806 42.1174C26.4525 39.3618 27.8303 36.8317 29.8437 34.8395C31.8571 32.8473 34.418 31.4803 37.2102 30.9073C40.0024 30.3343 42.9036 30.5803 45.5557 31.615C48.2077 32.6497 50.4944 34.4278 52.1335 36.7297C53.7725 39.0316 54.6921 41.7565 54.7787 44.568V55.8C57.1934 52.7035 58.5024 48.9064 58.5019 45Z" fill="white"/>
<path d="M49.3642 53.988V46.428H43.6942C43.3473 47.2185 42.7432 47.8724 41.9775 48.2866C41.2118 48.7007 40.3279 48.8516 39.4656 48.7152C38.6033 48.5789 37.8116 48.1632 37.2155 47.5337C36.6194 46.9042 36.2529 46.0968 36.1738 45.239C36.0947 44.3812 36.3076 43.5219 36.7788 42.7967C37.2501 42.0715 37.9528 41.5218 38.7761 41.2343C39.5993 40.9469 40.4962 40.9381 41.3251 41.2093C42.154 41.4805 42.8678 42.0162 43.3536 42.732H49.0844C48.6805 41.0948 47.8234 39.6003 46.6087 38.4154C45.394 37.2305 43.8695 36.4016 42.2051 36.0212C40.5407 35.6407 38.8019 35.7238 37.1826 36.261C35.5632 36.7982 34.127 37.7685 33.0341 39.0636C31.9412 40.3587 31.2345 41.9278 30.9929 43.5959C30.7512 45.264 30.9842 46.9655 31.6657 48.5106C32.3472 50.0558 33.4504 51.3838 34.8525 52.3468C36.2545 53.3097 37.9002 53.8696 39.606 53.964L49.3642 53.988Z" fill="white"/>
<path d="M71.1558 39.9241C69.9146 39.9265 68.7019 40.2917 67.6711 40.9735C66.6402 41.6553 65.8374 42.6232 65.3641 43.7548C64.8908 44.8865 64.7682 46.1311 65.0118 47.3315C65.2554 48.5318 65.8543 49.634 66.7328 50.4987C67.6114 51.3635 68.7301 51.9521 69.9476 52.19C71.1651 52.4279 72.4269 52.3046 73.5734 51.8356C74.7199 51.3666 75.6997 50.573 76.3891 49.555C77.0784 48.5369 77.4463 47.3403 77.4463 46.1161C77.4545 45.2997 77.2972 44.4899 76.9838 43.7343C76.6705 42.9786 76.2072 42.2923 75.6213 41.7155C75.0354 41.1388 74.3386 40.6832 73.5718 40.3756C72.8049 40.068 71.9836 39.9145 71.1558 39.9241ZM71.1558 49.3561C70.7259 49.363 70.299 49.2833 69.9013 49.1219C69.5036 48.9606 69.1435 48.721 68.8429 48.4178C68.5422 48.1145 68.3074 47.754 68.1528 47.3583C67.9982 46.9626 67.927 46.5399 67.9436 46.1161C67.9166 45.6829 67.9798 45.2488 68.1293 44.8405C68.2788 44.4323 68.5115 44.0586 68.813 43.7424C69.1145 43.4262 69.4784 43.1742 69.8824 43.002C70.2864 42.8297 70.7218 42.7409 71.1619 42.7409C71.602 42.7409 72.0374 42.8297 72.4414 43.002C72.8454 43.1742 73.2093 43.4262 73.5108 43.7424C73.8123 44.0586 74.045 44.4323 74.1945 44.8405C74.344 45.2488 74.4072 45.6829 74.3801 46.1161C74.3968 46.5409 74.3253 46.9646 74.1699 47.3612C74.0146 47.7577 73.7787 48.1188 73.4767 48.4222C73.1748 48.7256 72.8132 48.965 72.4141 49.1256C72.015 49.2861 71.5868 49.3646 71.1558 49.3561ZM82.5201 42.2761V40.2001H79.4539V51.9361H82.5201V46.3801C82.4982 45.927 82.5835 45.475 82.7691 45.0599C82.9546 44.6448 83.2355 44.2779 83.5894 43.9881C83.9434 43.6984 84.3608 43.4937 84.8087 43.3903C85.2565 43.2869 85.7227 43.2875 86.1703 43.3921V40.0201C85.3979 39.9657 84.6279 40.1549 83.9718 40.5604C83.3156 40.966 82.8072 41.5668 82.5201 42.2761ZM96.7315 41.6401C96.2676 41.0755 95.6759 40.626 95.0039 40.328C94.3319 40.03 93.5984 39.8916 92.8623 39.9241C92.0706 39.9549 91.2929 40.1398 90.5739 40.4682C89.855 40.7965 89.2089 41.2617 88.6729 41.8372C88.137 42.4127 87.7216 43.0869 87.4508 43.8213C87.18 44.5556 87.0591 45.3355 87.095 46.1161C87.0591 46.8967 87.18 47.6766 87.4508 48.4109C87.7216 49.1453 88.137 49.8196 88.6729 50.395C89.2089 50.9705 89.855 51.4357 90.5739 51.7641C91.2929 52.0924 92.0706 52.2773 92.8623 52.3081C93.5984 52.3406 94.3319 52.2023 95.0039 51.9042C95.6759 51.6062 96.2676 51.1568 96.7315 50.5921V51.9841H99.7976V40.2001H96.7315V41.6401ZM93.4341 49.4281C92.9916 49.4438 92.5507 49.3683 92.1394 49.2066C91.7281 49.0449 91.3555 48.8005 91.0453 48.4889C90.7351 48.1773 90.4941 47.8054 90.3377 47.3969C90.1813 46.9883 90.1129 46.5522 90.1368 46.1161C90.1368 45.2568 90.4829 44.4327 91.099 43.8251C91.7151 43.2175 92.5507 42.8761 93.422 42.8761C94.2932 42.8761 95.1288 43.2175 95.7449 43.8251C96.361 44.4327 96.7071 45.2568 96.7071 46.1161C96.729 46.5496 96.66 46.9829 96.5044 47.389C96.3488 47.795 96.1099 48.165 95.8027 48.4758C95.4955 48.7867 95.1266 49.0317 94.7191 49.1955C94.3115 49.3594 93.8741 49.4386 93.4341 49.4281ZM109.081 39.9241C108.398 39.8798 107.715 40.0074 107.096 40.295C106.476 40.5826 105.941 41.0207 105.541 41.5681V40.2001H102.487V51.9361H105.541V45.6481C105.541 43.6081 106.66 42.7441 108.157 42.7441C108.478 42.7212 108.801 42.7682 109.103 42.8819C109.404 42.9957 109.676 43.1733 109.9 43.4022C110.124 43.6312 110.294 43.9058 110.399 44.2068C110.503 44.5078 110.54 44.8278 110.505 45.1441V51.9721H113.571V44.7721C113.571 41.6641 111.6 39.9241 109.081 39.9241ZM125.179 41.7121C124.741 41.1325 124.166 40.6668 123.505 40.3553C122.843 40.0438 122.115 39.8958 121.382 39.9241C120.593 39.9303 119.813 40.091 119.087 40.3968C118.362 40.7026 117.705 41.1475 117.155 41.7056C116.605 42.2637 116.172 42.924 115.883 43.6482C115.594 44.3723 115.453 45.1459 115.469 45.9241C115.451 46.7027 115.591 47.477 115.88 48.2019C116.168 48.9268 116.601 49.5877 117.151 50.1462C117.701 50.7047 118.359 51.1495 119.085 51.4547C119.812 51.76 120.593 51.9195 121.382 51.9241C122.115 51.9524 122.843 51.8045 123.505 51.4929C124.166 51.1814 124.741 50.7157 125.179 50.1361V51.4081C125.205 51.8088 125.142 52.2104 124.992 52.584C124.843 52.9576 124.612 53.294 124.315 53.5693C124.019 53.8445 123.664 54.0516 123.277 54.1759C122.89 54.3002 122.48 54.3385 122.076 54.2881C121.448 54.3644 120.812 54.2473 120.254 53.953C119.697 53.6587 119.245 53.2015 118.961 52.6441L116.345 54.1321C116.926 55.0747 117.759 55.8411 118.753 56.347C119.747 56.853 120.863 57.079 121.979 57.0001C125.106 57.0001 128.172 55.2601 128.172 51.4201V40.2001H125.179V41.7121ZM121.857 49.1401C121.218 49.126 120.598 48.9264 120.074 48.5663C119.549 48.2063 119.144 47.7018 118.909 47.1159C118.674 46.5301 118.619 45.8888 118.752 45.2725C118.884 44.6561 119.198 44.0919 119.654 43.6505C120.11 43.2091 120.688 42.9101 121.315 42.7908C121.942 42.6716 122.591 42.7374 123.181 42.98C123.771 43.2227 124.275 43.6314 124.63 44.155C124.985 44.6787 125.176 45.294 125.179 45.9241C125.191 46.3548 125.113 46.7834 124.949 47.183C124.786 47.5826 124.541 47.9447 124.229 48.2465C123.917 48.5484 123.546 48.7835 123.137 48.9373C122.729 49.091 122.293 49.1601 121.857 49.1401ZM136.519 39.9241C135.691 39.9041 134.868 40.0509 134.099 40.3556C133.331 40.6604 132.634 41.1165 132.051 41.6962C131.468 42.2759 131.011 42.9669 130.708 43.7269C130.405 44.4869 130.262 45.2999 130.289 46.1161C130.259 46.9567 130.41 47.7939 130.729 48.5736C131.049 49.3532 131.532 50.0578 132.146 50.6417C132.759 51.2256 133.491 51.6757 134.292 51.9627C135.094 52.2498 135.948 52.3675 136.798 52.3081C137.798 52.3446 138.792 52.1343 139.688 51.6964C140.585 51.2584 141.356 50.6066 141.933 49.8001L139.5 48.3961C139.179 48.7844 138.771 49.0946 138.309 49.3027C137.847 49.5108 137.343 49.6112 136.835 49.5961C136.098 49.6903 135.351 49.5204 134.73 49.1174C134.11 48.7144 133.656 48.105 133.452 47.4001H142.456C142.532 47.0043 142.572 46.6028 142.578 46.2001C142.626 45.3888 142.505 44.5763 142.222 43.8132C141.938 43.0501 141.499 42.3525 140.931 41.764C140.362 41.1754 139.677 40.7083 138.918 40.3918C138.159 40.0753 137.343 39.9161 136.519 39.9241ZM133.404 45.0001C133.531 44.2915 133.92 43.6544 134.495 43.2113C135.07 42.7683 135.791 42.5506 136.519 42.6001C137.222 42.5744 137.911 42.8047 138.454 43.2472C138.997 43.6897 139.356 44.3136 139.463 45.0001H133.404ZM153.577 41.6281C153.117 41.0723 152.533 40.6292 151.87 40.3336C151.207 40.0379 150.484 39.8978 149.757 39.9241C148.965 39.9549 148.187 40.1398 147.468 40.4682C146.749 40.7965 146.103 41.2617 145.567 41.8372C145.031 42.4127 144.616 43.0869 144.345 43.8213C144.074 44.5556 143.953 45.3355 143.989 46.1161C143.953 46.8967 144.074 47.6766 144.345 48.4109C144.616 49.1453 145.031 49.8196 145.567 50.395C146.103 50.9705 146.749 51.4357 147.468 51.7641C148.187 52.0924 148.965 52.2773 149.757 52.3081C150.493 52.3406 151.226 52.2023 151.898 51.9042C152.57 51.6062 153.162 51.1568 153.626 50.5921V51.9841H156.692V40.2001H153.626L153.577 41.6281ZM150.28 49.4161C149.839 49.4284 149.401 49.3504 148.993 49.1872C148.584 49.0239 148.215 48.779 147.907 48.4678C147.599 48.1565 147.361 47.7858 147.206 47.379C147.051 46.9722 146.983 46.5381 147.007 46.1041C147.007 45.2448 147.353 44.4207 147.969 43.8131C148.585 43.2055 149.421 42.8641 150.292 42.8641C151.163 42.8641 151.999 43.2055 152.615 43.8131C153.231 44.4207 153.577 45.2448 153.577 46.1041C153.601 46.5407 153.532 46.9774 153.376 47.3865C153.22 47.7956 152.979 48.1683 152.669 48.4808C152.359 48.7933 151.987 49.0389 151.575 49.202C151.164 49.365 150.723 49.442 150.28 49.4281V49.4161ZM162.386 42.2161V40.2001H159.32V51.9361H162.386V46.3801C162.364 45.927 162.45 45.475 162.635 45.0599C162.821 44.6448 163.102 44.2779 163.456 43.9881C163.81 43.6984 164.227 43.4937 164.675 43.3903C165.123 43.2869 165.589 43.2875 166.036 43.3921V40.0201C165.264 39.9657 164.494 40.1549 163.838 40.5604C163.182 40.966 162.673 41.5668 162.386 42.2761V42.2161Z" fill="white"/>
</g>
<defs>
<clipPath id="clip0_139_2162">
<rect width="144" height="36" fill="white" transform="translate(22 27)"/>
</clipPath>
</defs>
</svg>
