<svg width="187" height="90" viewBox="0 0 187 90" fill="none" xmlns="http://www.w3.org/2000/svg">
<rect width="187" height="90" fill="#C71C36"/>
<path fill-rule="evenodd" clip-rule="evenodd" d="M59.349 24.7486L59.5217 25.9736C54.0087 37.1089 61.0387 36.2024 61.0387 36.2024L61.9267 36.0431L62.0623 36.3126C75.1233 34.8426 82.2643 41.5924 82.2643 41.5924C83.214 25.6184 59.349 24.7486 59.349 24.7486Z" fill="#F8B829"/>
<path d="M51.1474 62.3684C50.5924 66.0434 53.6141 68.1749 54.0951 66.9989C55.4271 65.2716 55.8957 65.7739 56.5617 63.1769C56.8049 62.8543 57.0865 62.5623 57.4004 62.3071C58.0746 61.6129 58.7242 60.9024 59.3491 60.1756C61.1922 58.1046 62.7667 55.8124 64.0357 53.3524C65.4437 50.8685 65.9571 47.982 65.4911 45.1694C64.9866 43.7465 64.2672 42.4082 63.3574 41.2004C63.0797 40.568 62.9531 39.8804 62.9874 39.1914C62.9568 38.1606 62.6457 37.1573 62.0871 36.2881C61.7987 35.9792 61.5793 35.6133 61.4432 35.2143C61.3072 34.8153 61.2576 34.3922 61.2977 33.9729C61.4581 33.0419 61.4581 32.1231 61.5937 31.1921C61.6792 29.4524 61.3584 27.7167 60.6564 26.1206C60.6564 26.1206 59.7931 24.6016 59.0284 24.9814C57.6669 24.1252 56.0846 23.6799 54.4733 23.6994C52.862 23.719 51.2911 24.2026 49.9511 25.0916C49.9511 25.0916 32.2897 36.3004 48.2121 57.8359C47.7311 60.6289 49.4454 63.5076 50.7774 65.4186" fill="#005D86"/>
<path d="M59.2751 37.7826L56.8824 26.9536C56.8824 26.9536 55.4764 22.7886 51.7764 28.0438L51.1598 27.2353C47.7558 32.0251 43.1431 37.7703 44.1668 43.9933C44.3157 45.142 44.715 46.2445 45.337 47.2241C45.959 48.2037 46.7887 49.0367 47.7681 49.6651C49.2114 50.6606 50.9588 51.1257 52.7099 50.9804C54.461 50.835 56.1064 50.0884 57.3634 48.8688C59.2874 47.2763 60.8538 44.0423 59.2751 37.7826Z" fill="white"/>
<path fill-rule="evenodd" clip-rule="evenodd" d="M62.0625 36.3494C62.0625 36.3494 73.4832 34.5854 82.2645 41.6292C82.2645 41.6292 74.0012 30.8614 60.8292 32.8582C60.8415 32.8582 59.8918 35.5042 62.0625 36.3494Z" fill="#F19320"/>
<path d="M82.2644 41.6291C82.4965 38.8505 81.7891 36.0744 80.254 33.7401C80.1307 33.5809 79.181 35.6389 79.1687 35.8226C79.1183 36.681 79.3288 37.5346 79.773 38.2726C80.402 39.4241 81.9314 40.3674 82.2397 41.6046" fill="#E95253"/>
<path d="M39.2334 57.1866C40.8477 57.7968 42.6091 57.912 44.2901 57.5174C46.6457 57.8359 47.8791 58.5709 50.6911 58.8894C54.1321 58.8894 57.5484 58.5219 60.9647 58.2034C62.0747 58.1054 64.5414 57.9706 65.4787 58.8404C66.0214 59.3426 65.8611 60.7024 65.8734 61.4129C63.8346 60.6408 61.688 60.1862 59.5094 60.0654C57.0427 60.0654 54.4897 60.1756 51.9861 60.1511C50.2783 60.1561 48.5735 60.0085 46.8924 59.7101C45.3261 59.4161 43.7844 59.0119 42.2181 58.6934C41.0834 58.4484 39.7021 58.2524 39.2334 57.1866Z" fill="#9B5F48"/>
<path d="M61.2238 59.3916C61.2238 59.7836 60.8785 60.6166 60.5578 60.6166C60.2372 60.6166 59.8918 59.7959 59.8918 59.3916V58.0074C59.8918 57.6154 60.1385 57.2234 60.4592 57.2234C60.6531 57.2528 60.8315 57.3461 60.9657 57.4883C61.0999 57.6305 61.1821 57.8133 61.1992 58.0074L61.2238 59.3916Z" fill="#969595"/>
<path d="M59.8917 59.5875C59.8917 59.8938 59.645 60.5308 59.386 60.5308C59.127 60.5308 58.8804 59.8938 58.8804 59.5875V58.4973C58.8804 58.191 59.0654 57.8848 59.3244 57.8848C59.4727 57.9076 59.6082 57.9815 59.7074 58.0934C59.8065 58.2053 59.863 58.3482 59.867 58.4973L59.8917 59.5875Z" fill="#838383"/>
<path d="M47.657 59.3916C47.657 59.7836 48.0023 60.6166 48.323 60.6166C48.6436 60.6166 48.989 59.7959 48.989 59.3916V58.0074C48.989 57.6154 48.7423 57.2234 48.4216 57.2234C48.2277 57.2528 48.0493 57.3461 47.9152 57.4883C47.781 57.6305 47.6987 57.8133 47.6816 58.0074L47.657 59.3916Z" fill="#969595"/>
<path d="M48.989 59.5875C48.989 59.8938 49.2357 60.5308 49.4947 60.5308C49.7537 60.5308 50.0003 59.8938 50.0003 59.5875V58.4973C50.0003 58.191 49.8153 57.8848 49.5563 57.8848C49.408 57.9076 49.2725 57.9815 49.1733 58.0934C49.0742 58.2053 49.0177 58.3482 49.0137 58.4973L48.989 59.5875Z" fill="#838383"/>
<path d="M61.7911 32.6131C62.0871 31.9149 62.6297 29.7466 61.1251 26.0104C60.8537 25.4346 60.1754 24.0994 58.7324 24.7854C58.5227 25.1039 61.3347 26.8556 60.7551 33.0296C60.7551 33.0296 60.0274 35.6144 62.0624 36.3371C61.7596 35.7015 61.6036 35.0068 61.6061 34.3036C61.563 33.7336 61.6257 33.1606 61.7911 32.6131ZM61.6554 32.8581C61.6554 32.8581 61.6554 32.8581 61.6677 32.8581H61.6554Z" fill="#003B55"/>
<path d="M59.3491 30.3346C59.8918 33.2256 58.4365 34.8671 55.5505 34.9038C53.3305 34.9038 50.0991 34.4383 49.7908 31.7433C49.5318 29.4036 51.0241 26.2308 53.4168 25.5203C56.7345 24.5158 58.8311 27.4926 59.3615 30.3346H59.3491Z" fill="#F8B829"/>
<path d="M57.5854 30.1264C57.6993 30.4666 57.7233 30.8302 57.6552 31.1823C57.5871 31.5344 57.4292 31.8633 57.1965 32.1374C56.9638 32.4116 56.6642 32.6218 56.3263 32.748C55.9884 32.8742 55.6236 32.9121 55.2667 32.8581C53.8607 32.8581 51.8997 32.5274 51.7764 30.8246C51.7104 30.0502 51.8933 29.2748 52.2988 28.6101C52.7044 27.9454 53.3116 27.4255 54.0334 27.1251C56.019 26.5739 57.2524 28.3501 57.5484 30.0774L57.5854 30.1264Z" fill="#005D86"/>
<path fill-rule="evenodd" clip-rule="evenodd" d="M56.5001 29.7589C56.5001 30.2154 56.3175 30.6532 55.9926 30.9759C55.6676 31.2987 55.2268 31.48 54.7673 31.48C54.3077 31.48 53.8669 31.2987 53.542 30.9759C53.217 30.6532 53.0344 30.2154 53.0344 29.7589C53.0344 29.3024 53.217 28.8647 53.542 28.5419C53.8669 28.2191 54.3077 28.0378 54.7673 28.0378C55.2268 28.0378 55.6676 28.2191 55.9926 28.5419C56.3175 28.8647 56.5001 29.3024 56.5001 29.7589Z" fill="#151410"/>
<path fill-rule="evenodd" clip-rule="evenodd" d="M55.0077 28.6686C55.0077 28.9748 54.7363 28.6686 54.7363 28.6686C54.7363 28.6686 55.0077 28.3501 55.0077 28.6686Z" fill="white"/>
<path fill-rule="evenodd" clip-rule="evenodd" d="M54.0333 28.6563C53.8607 28.6563 53.8237 28.8401 53.799 29.0361C53.7525 29.0536 53.7106 29.0814 53.6763 29.1172C53.642 29.153 53.6162 29.1959 53.6008 29.243C53.5854 29.29 53.5808 29.3398 53.5874 29.3888C53.5939 29.4378 53.6115 29.4847 53.6387 29.5261C53.6387 29.5261 54.4773 28.7421 54.539 28.7911C54.469 28.7345 54.3878 28.6933 54.3007 28.6701C54.2135 28.6469 54.1224 28.6422 54.0333 28.6563Z" fill="white"/>
<path d="M81.5983 56.9172C81.6955 56.9149 81.7921 56.9334 81.8815 56.9715C81.9709 57.0095 82.0509 57.0662 82.1163 57.1377L83.5717 58.6812C81.364 61.4742 77.1337 62.0989 73.9023 60.9107C72.296 60.2583 70.925 59.1403 69.9679 57.7025C69.0109 56.2646 68.5124 54.5737 68.5373 52.8502C68.4045 51.1041 68.7951 49.3579 69.6599 47.832C70.5247 46.306 71.8249 45.0684 73.3967 44.2752C75.0187 43.5254 76.8276 43.2684 78.5963 43.5364C80.3649 43.8045 82.0143 44.5857 83.3373 45.7819L82.104 47.4479C81.438 48.4034 80.4143 47.3499 79.7237 47.0192C78.699 46.5501 77.5564 46.3965 76.443 46.5782C75.3002 46.813 74.2711 47.425 73.5231 48.3148C72.7751 49.2045 72.3524 50.3194 72.3237 51.4782C72.1421 52.5762 72.2487 53.7021 72.6333 54.7472C73.0178 55.7922 73.6673 56.7211 74.519 57.4439C75.4922 58.0915 76.6505 58.4081 77.8202 58.3462C78.9899 58.2844 80.1079 57.8474 81.0063 57.1009C81.1774 56.9756 81.3859 56.9109 81.5983 56.9172Z" fill="white"/>
<path d="M88.5667 43.1849V61.2414H85.175V43.1849H88.5667Z" fill="white"/>
<path d="M94.8073 48.7586V61.2536H91.4526V48.7586H94.8073Z" fill="white"/>
<path d="M95.2143 45.1327C95.2143 47.7419 91.0457 47.7542 91.0457 45.1327C91.0457 42.5112 95.2143 42.5112 95.2143 45.1327Z" fill="white"/>
<path d="M106.808 51.5394C106.277 52.2499 105.71 51.8089 105.118 51.5394C104.388 51.1302 103.535 50.9954 102.713 51.1597C101.011 51.5394 100.518 53.2667 100.468 54.8347C100.419 56.4027 100.752 58.1912 102.306 58.8159C102.702 58.9662 103.124 59.0361 103.548 59.0213C103.972 59.0066 104.388 58.9076 104.773 58.7302C105.377 58.4484 106.24 57.3827 106.869 58.2034L107.831 59.4284C106.962 60.3428 105.847 60.9896 104.618 61.2915C103.389 61.5934 102.098 61.5378 100.9 61.1312C99.7193 60.6594 98.7143 59.8363 98.0232 58.7748C97.332 57.7133 96.9885 56.4653 97.0397 55.2022C96.9246 53.9126 97.2197 52.6196 97.8835 51.5054C98.5473 50.3912 99.5463 49.5119 100.74 48.9914C101.914 48.5418 103.192 48.4356 104.425 48.6852C105.658 48.9349 106.793 49.53 107.696 50.4002L106.808 51.5394Z" fill="white"/>
<path d="M112.863 43.1849V53.4382H113.418C113.587 53.4461 113.755 53.4109 113.907 53.3358C114.058 53.2608 114.187 53.1484 114.282 53.0094L117.057 49.3344C117.185 49.155 117.355 49.0097 117.553 48.9114C117.751 48.8131 117.97 48.7648 118.191 48.7709H121.262L117.673 53.3034C117.408 53.6644 117.073 53.9686 116.687 54.1977C117.05 54.4723 117.352 54.8184 117.575 55.2144L121.46 61.2292H118.438C118.214 61.2449 117.99 61.1996 117.79 61.0981C117.59 60.9967 117.422 60.8429 117.303 60.6534L114.467 56.0719C114.381 55.9134 114.25 55.7842 114.089 55.7012C113.928 55.6181 113.746 55.5851 113.566 55.6064H112.863V61.2414H109.533V43.1849H112.863Z" fill="white"/>
<path d="M126.171 43.1849V53.4382H126.726C126.895 53.4461 127.063 53.4109 127.214 53.3358C127.365 53.2607 127.494 53.1484 127.589 53.0094L130.364 49.3344C130.492 49.155 130.663 49.0097 130.86 48.9114C131.058 48.8131 131.278 48.7648 131.499 48.7709H134.57L130.956 53.3279C130.691 53.6889 130.356 53.9931 129.97 54.2222C130.333 54.4968 130.635 54.8429 130.858 55.2389L134.743 61.2537H131.733C131.509 61.2694 131.285 61.2241 131.085 61.1226C130.885 61.0212 130.717 60.8674 130.599 60.6779L127.774 56.0842C127.689 55.9257 127.557 55.7964 127.396 55.7134C127.236 55.6304 127.054 55.5974 126.874 55.6187H126.171V61.2537H122.804V43.1849H126.171Z" fill="white"/>
<path d="M140.983 64.5979C140.897 64.8121 140.744 64.9931 140.546 65.1144C140.349 65.2357 140.117 65.2908 139.886 65.2716H137.419L139.762 60.2001L134.718 48.7096H137.666C137.865 48.7006 138.063 48.7535 138.231 48.8611C138.399 48.9687 138.529 49.1255 138.603 49.3099L140.996 55.3001C141.168 55.7738 141.316 56.2475 141.44 56.7211C141.588 56.2434 141.76 55.7656 141.945 55.2879L144.165 49.3221C144.239 49.1428 144.366 48.9897 144.529 48.8827C144.692 48.7757 144.883 48.7196 145.078 48.7219H147.767L140.983 64.5979Z" fill="white"/>
</svg>
