<svg width="187" height="90" viewBox="0 0 187 90" fill="none" xmlns="http://www.w3.org/2000/svg">
<rect width="187" height="90" fill="#E2E2E4"/>
<g clip-path="url(#clip0_139_2141)">
<path d="M36.4575 29.2562L30.1436 32.8975L36.4575 36.5389L30.1436 40.1234L36.4575 43.7648L30.1436 47.3493L36.4575 50.9906L44.6655 46.3251L49.1427 50.9906V43.7932L55.4566 40.1519L36.4575 29.2562ZM47.9947 47.9751L37.6054 37.1648L47.9947 43.082V47.9751Z" fill="black"/>
<path d="M157.856 45.5001H155.618V41.8587H153.609V45.5001H151.313V47.4346H153.609V56.8794H155.618V47.4061H157.856V45.5001ZM146.377 45.2156C145.71 45.1793 145.046 45.3181 144.452 45.6178C143.857 45.9175 143.353 46.3676 142.99 46.9225V45.5001H140.981V56.8794H142.99V50.3647C142.954 49.9113 143.011 49.4553 143.159 49.0247C143.307 48.5942 143.543 48.1983 143.851 47.8613C144.396 47.3551 145.113 47.0707 145.86 47.0647C146.175 47.0488 146.489 47.0961 146.785 47.2036C147.081 47.3111 147.352 47.4768 147.582 47.6906C147.81 47.9335 147.984 48.221 148.092 48.5346C148.201 48.8482 148.242 49.1809 148.213 49.5113V56.794H150.222V49.3975C150.235 48.6089 150.058 47.8288 149.706 47.1216C149.388 46.5152 148.913 46.0044 148.328 45.6423C147.723 45.3388 147.054 45.1828 146.377 45.1871V45.2156ZM129.874 50.3647C129.983 49.4409 130.433 48.5898 131.137 47.9751C131.86 47.3747 132.777 47.0517 133.72 47.0647C134.601 47.0514 135.458 47.3546 136.131 47.9182C136.487 48.225 136.777 48.5997 136.984 49.02C137.191 49.4403 137.311 49.8976 137.336 50.3647H129.874ZM139.345 52.0716C139.393 51.7706 139.412 51.4658 139.403 51.1613C139.407 50.1173 139.171 49.0861 138.714 48.1458C138.274 47.2469 137.601 46.4808 136.762 45.9268C135.873 45.3655 134.831 45.0876 133.777 45.1302C132.692 45.1234 131.623 45.398 130.678 45.9268C129.78 46.437 129.045 47.1859 128.554 48.0889C128.039 49.0309 127.782 50.0901 127.808 51.1613C127.782 52.2324 128.039 53.2916 128.554 54.2337C129.045 55.1367 129.78 55.8856 130.678 56.3958C131.623 56.9245 132.692 57.1991 133.777 57.1923C134.959 57.2037 136.118 56.8671 137.107 56.2251C138.001 55.622 138.667 54.7413 139.001 53.7216H136.934C136.689 54.2494 136.262 54.6731 135.729 54.9164C135.01 55.2735 134.206 55.4254 133.405 55.355C132.604 55.2847 131.839 54.9949 131.195 54.5182C130.461 53.8953 129.99 53.0222 129.874 52.0716H139.345ZM119.973 55.1725C119.251 55.1785 118.54 55.0023 117.907 54.6604C117.288 54.3037 116.774 53.7939 116.414 53.1811C116.075 52.5507 115.898 51.8473 115.898 51.1328C115.898 50.4184 116.075 49.7149 116.414 49.0845C116.774 48.4717 117.288 47.962 117.907 47.6052C118.543 47.269 119.252 47.0932 119.973 47.0932C120.694 47.0932 121.403 47.269 122.039 47.6052C122.658 47.962 123.172 48.4717 123.532 49.0845C123.871 49.7149 124.048 50.4184 124.048 51.1328C124.048 51.8473 123.871 52.5507 123.532 53.1811C123.172 53.7939 122.658 54.3037 122.039 54.6604C121.406 55.0023 120.694 55.1785 119.973 55.1725ZM124.048 45.5001V47.4914C123.581 46.8008 122.951 46.2342 122.212 45.8414C121.435 45.4285 120.567 45.2135 119.686 45.2156C118.657 45.224 117.648 45.4986 116.759 46.0121C115.861 46.5223 115.125 47.2712 114.635 48.1742C114.109 49.0732 113.832 50.0937 113.831 51.1328C113.832 52.1899 114.109 53.2288 114.635 54.1483C115.142 55.0395 115.873 55.7846 116.759 56.3104C117.642 56.8382 118.655 57.1139 119.686 57.107C120.546 57.1129 121.394 56.9083 122.155 56.5112C122.916 56.1142 123.566 55.5371 124.048 54.8311V56.4242C124.069 56.8942 123.993 57.3635 123.825 57.8036C123.658 58.2437 123.401 58.6454 123.073 58.9846C122.289 59.6368 121.281 59.963 120.26 59.8949C119.605 59.9242 118.953 59.7871 118.366 59.4966C117.867 59.2883 117.432 58.955 117.103 58.5294C116.843 58.1843 116.702 57.7653 116.701 57.3346H114.692C114.696 58.1609 114.979 58.9623 115.496 59.6104C116.026 60.3037 116.742 60.8358 117.562 61.1466C118.408 61.531 119.329 61.7253 120.26 61.7156C121.251 61.7175 122.231 61.5038 123.13 61.0897C123.997 60.6935 124.733 60.0623 125.254 59.269C125.801 58.3999 126.08 57.3915 126.057 56.3673V45.5001H124.048ZM110.043 56.8794H112.081V45.5001H110.072L110.043 56.8794ZM110.043 43.4518H112.081V40.9483H110.072L110.043 43.4518ZM105.566 56.8794H107.575V40.4647H105.566V56.8794ZM101.089 56.8794H103.098V40.4647H101.089V56.8794ZM89.9532 50.3932C90.0621 49.4694 90.5119 48.6182 91.216 48.0035C91.9392 47.4032 92.8558 47.0801 93.799 47.0932C94.6802 47.0799 95.5364 47.383 96.2098 47.9466C96.5659 48.2535 96.8562 48.6282 97.0632 49.0485C97.2703 49.4688 97.39 49.9261 97.4151 50.3932H89.9532ZM99.4241 52.1001C99.4718 51.7991 99.491 51.4943 99.4815 51.1897C99.4857 50.1458 99.2502 49.1145 98.7927 48.1742C98.3533 47.2754 97.6795 46.5093 96.8411 45.9552C95.9516 45.394 94.91 45.116 93.8564 45.1587C92.7708 45.1519 91.7023 45.4265 90.7568 45.9552C89.8593 46.4654 89.1236 47.2143 88.6331 48.1173C88.1181 49.0594 87.8609 50.1186 87.8869 51.1897C87.8609 52.2609 88.1181 53.3201 88.6331 54.2621C89.1236 55.1651 89.8593 55.914 90.7568 56.4242C91.7023 56.953 92.7708 57.2276 93.8564 57.2208C95.0382 57.2321 96.1969 56.8955 97.1855 56.2535C98.0797 55.6505 98.746 54.7698 99.0797 53.7501H97.0133C96.7679 54.2779 96.3404 54.7016 95.808 54.9449C95.0892 55.302 94.2845 55.4538 93.4837 55.3835C92.6829 55.3131 91.9176 55.0234 91.2734 54.5466C90.9004 54.2462 90.5915 53.8752 90.3649 53.4551C90.1382 53.035 89.9982 52.5744 89.9532 52.1001H99.4241ZM87.5999 45.5001H85.3613V41.8587H83.3811V45.5001H81.0851V47.4346H83.3811V56.8794H85.39V47.4061H87.6286L87.5999 45.5001ZM73.6232 55.2578C72.9017 55.2639 72.1906 55.0876 71.5568 54.7458C70.9386 54.389 70.4244 53.8793 70.0645 53.2664C69.7253 52.6361 69.5479 51.9326 69.5479 51.2182C69.5479 50.5037 69.7253 49.8003 70.0645 49.1699C70.4082 48.5449 70.9263 48.0313 71.5568 47.6906C72.1928 47.3544 72.9025 47.1785 73.6232 47.1785C74.344 47.1785 75.0536 47.3544 75.6896 47.6906C76.3078 48.0473 76.822 48.5571 77.1819 49.1699C77.5211 49.8003 77.6985 50.5037 77.6985 51.2182C77.6985 51.9326 77.5211 52.6361 77.1819 53.2664C76.8382 53.8915 76.3201 54.405 75.6896 54.7458C75.0612 55.1011 74.3463 55.2783 73.6232 55.2578ZM77.7272 40.9483V47.4346C77.2536 46.7244 76.6034 46.1472 75.8393 45.7586C75.0753 45.3699 74.2231 45.1829 73.3649 45.2156C72.3528 45.2165 71.3603 45.492 70.495 46.0121C69.6101 46.5384 68.8783 47.2834 68.3712 48.1742C67.8444 49.0934 67.5674 50.1325 67.5674 51.1897C67.5674 52.2469 67.8444 53.286 68.3712 54.2052C68.8783 55.0961 69.6101 55.8411 70.495 56.3673C71.3603 56.8875 72.3528 57.1629 73.3649 57.1639C74.242 57.1916 75.1116 56.9957 75.8905 56.5949C76.6183 56.1863 77.2457 55.6228 77.7272 54.9449V56.8794H79.7362V40.9483H77.7272ZM59.6465 55.2863C58.925 55.2923 58.2139 55.1161 57.5802 54.7742C56.9619 54.4174 56.4477 53.9077 56.0878 53.2949C55.7486 52.6645 55.5712 51.9611 55.5712 51.2466C55.5712 50.5322 55.7486 49.8287 56.0878 49.1983C56.4315 48.5733 56.9496 48.0597 57.5802 47.719C58.2161 47.3828 58.9258 47.207 59.6465 47.207C60.3673 47.207 61.0769 47.3828 61.7129 47.719C62.3311 48.0758 62.8454 48.5855 63.2053 49.1983C63.5444 49.8287 63.7219 50.5322 63.7219 51.2466C63.7219 51.9611 63.5444 52.6645 63.2053 53.2949C62.8616 53.9199 62.3434 54.4335 61.7129 54.7742C61.0845 55.1295 60.3697 55.3067 59.6465 55.2863ZM63.7219 45.5001V47.4346C63.2482 46.7244 62.598 46.1472 61.834 45.7586C61.0699 45.3699 60.2177 45.1829 59.3595 45.2156C58.3282 45.2188 57.3164 45.4947 56.4285 46.0147C55.5406 46.5348 54.8088 47.2803 54.3084 48.1742C53.7816 49.0934 53.5046 50.1325 53.5046 51.1897C53.5046 52.2469 53.7816 53.286 54.3084 54.2052C54.8088 55.0992 55.5406 55.8446 56.4285 56.3647C57.3164 56.8848 58.3282 57.1606 59.3595 57.1639C60.2366 57.1916 61.1063 56.9957 61.8851 56.5949C62.6129 56.1863 63.2403 55.6228 63.7219 54.9449V56.8794H65.7308V45.5001H63.7219Z" fill="black"/>
</g>
<defs>
<clipPath id="clip0_139_2141">
<rect width="128" height="33" fill="white" transform="translate(30 29)"/>
</clipPath>
</defs>
</svg>
