<svg width="188" height="90" viewBox="0 0 188 90" fill="none" xmlns="http://www.w3.org/2000/svg">
<rect width="188" height="90" fill="#282240"/>
<path d="M29.6675 57.6668L32.1067 54.3907L29.8161 51.8894H30.5154L33.808 55.5695V51.8894H34.3586V55.5695L37.6512 51.8894H38.3505L36.049 54.3907L38.4992 57.6668H37.8219L35.7021 54.7892L34.3586 56.2501V57.6668H33.808V56.2501L32.4646 54.7781L30.3447 57.6668H29.6675ZM39.8371 57.6668V51.8894H40.3933V56.9308L44.2915 51.8894H44.8476V57.6668H44.2915V52.6255L40.3933 57.6668H39.8371ZM45.9379 57.6668L46.0425 57.1577C46.2224 57.2093 46.3673 57.2351 46.4775 57.2351C46.6022 57.2351 46.7068 57.2259 46.7913 57.2075C46.8794 57.1853 46.973 57.1355 47.0721 57.0581C47.1712 56.9806 47.2538 56.8718 47.3199 56.7316C47.3859 56.5914 47.4502 56.3977 47.5126 56.1505C47.5786 55.9033 47.63 55.6045 47.6667 55.2541C47.7071 54.8999 47.7402 54.4664 47.7658 53.9536C47.7916 53.4408 47.8062 52.8542 47.8099 52.1938V51.8894H51.7247V57.6668H51.1686V52.3875H48.3385V52.5424C48.3385 53.2176 48.322 53.8171 48.2889 54.3409C48.2595 54.8611 48.2192 55.3039 48.1678 55.6691C48.1201 56.0343 48.054 56.3461 47.9696 56.6043C47.8852 56.8589 47.7989 57.0617 47.7108 57.213C47.6227 57.3606 47.5126 57.4768 47.3804 57.5617C47.2483 57.6428 47.1216 57.6945 47.0005 57.7166C46.883 57.7424 46.7399 57.7553 46.5711 57.7553C46.3618 57.7553 46.1507 57.7258 45.9379 57.6668ZM53.4315 54.7781C53.4315 54.376 53.5068 53.9905 53.6573 53.6215C53.8078 53.2526 54.0116 52.9317 54.2685 52.6587C54.5254 52.382 54.8393 52.1625 55.21 52.0001C55.5808 51.8341 55.9754 51.7511 56.3939 51.7511C56.9481 51.7511 57.451 51.8894 57.9025 52.1661C58.3577 52.4391 58.71 52.8081 58.9596 53.2729C59.2129 53.7341 59.3396 54.2358 59.3396 54.7781C59.3396 55.3167 59.2129 55.8167 58.9596 56.2778C58.7064 56.7389 58.3503 57.1097 57.8915 57.3901C57.4363 57.6668 56.9297 57.8051 56.3718 57.8051C55.957 57.8051 55.5661 57.724 55.199 57.5617C54.8319 57.3993 54.5199 57.1817 54.263 56.9087C54.006 56.6357 53.8023 56.3147 53.6518 55.9458C53.505 55.5731 53.4315 55.1839 53.4315 54.7781ZM54.0262 54.7781C54.0262 55.4754 54.2538 56.0675 54.709 56.5545C55.1678 57.0378 55.7294 57.2794 56.3939 57.2794C56.8123 57.2794 57.2014 57.1687 57.5611 56.9474C57.9208 56.7223 58.2072 56.418 58.4201 56.0343C58.6329 55.6506 58.7394 55.2319 58.7394 54.7781C58.7394 54.0845 58.5082 53.4943 58.0456 53.0073C57.5831 52.5166 57.0252 52.2713 56.3718 52.2713C55.946 52.2713 55.5532 52.3838 55.1935 52.6089C54.8338 52.8302 54.5493 53.1346 54.3401 53.5219C54.1308 53.9056 54.0262 54.3243 54.0262 54.7781ZM61.0354 57.6668V51.8894H61.5915V56.9308L65.4898 51.8894H66.0459V57.6668H65.4898V52.6255L61.5915 57.6668H61.0354ZM62.021 49.6427L62.4835 49.5431C62.6304 50.0928 62.9827 50.3676 63.5407 50.3676C64.1023 50.3676 64.4565 50.0928 64.6033 49.5431L65.0659 49.6427C64.9961 50.019 64.8218 50.3307 64.5428 50.5779C64.2638 50.8251 63.9298 50.9487 63.5407 50.9487C63.1516 50.9487 62.8175 50.8251 62.5386 50.5779C62.2633 50.3307 62.0907 50.019 62.021 49.6427ZM71.5189 57.6668V51.8894H72.0751V55.5916L75.6375 51.8894H76.3698L73.8535 54.4461L76.4468 57.6668H75.7476L73.4736 54.8445L72.0751 56.2612V57.6668H71.5189ZM77.3939 54.7781C77.3939 54.376 77.4691 53.9905 77.6197 53.6215C77.7702 53.2526 77.9739 52.9317 78.2308 52.6587C78.4877 52.382 78.8016 52.1625 79.1723 52.0001C79.5431 51.8341 79.9377 51.7511 80.3562 51.7511C80.9104 51.7511 81.4133 51.8894 81.8648 52.1661C82.32 52.4391 82.6723 52.8081 82.9219 53.2729C83.1753 53.7341 83.3019 54.2358 83.3019 54.7781C83.3019 55.3167 83.1753 55.8167 82.9219 56.2778C82.6687 56.7389 82.3126 57.1097 81.8538 57.3901C81.3986 57.6668 80.8921 57.8051 80.3341 57.8051C79.9193 57.8051 79.5284 57.724 79.1613 57.5617C78.7943 57.3993 78.4822 57.1817 78.2253 56.9087C77.9684 56.6357 77.7647 56.3147 77.6141 55.9458C77.4673 55.5731 77.3939 55.1839 77.3939 54.7781ZM77.9885 54.7781C77.9885 55.4754 78.2161 56.0675 78.6713 56.5545C79.1302 57.0378 79.6917 57.2794 80.3562 57.2794C80.7746 57.2794 81.1637 57.1687 81.5234 56.9474C81.8831 56.7223 82.1695 56.418 82.3824 56.0343C82.5953 55.6506 82.7017 55.2319 82.7017 54.7781C82.7017 54.0845 82.4705 53.4943 82.008 53.0073C81.5454 52.5166 80.9875 52.2713 80.3341 52.2713C79.9083 52.2713 79.5155 52.3838 79.1558 52.6089C78.7961 52.8302 78.5116 53.1346 78.3024 53.5219C78.0931 53.9056 77.9885 54.3243 77.9885 54.7781ZM84.9977 57.6668V51.8894H85.4988L87.8443 55.2098L90.19 51.8894H90.6855V57.6668H90.1294V52.8523L87.8168 56.0454L85.5318 52.8523V57.6668H84.9977ZM92.7833 57.6668V51.8894H97.5681V57.6668H97.0122V52.3875H93.3394V57.6668H92.7833ZM98.6639 57.6668L98.768 57.1577C98.9485 57.2093 99.0931 57.2351 99.2032 57.2351C99.3279 57.2351 99.4327 57.2259 99.5169 57.2075C99.6051 57.1853 99.6987 57.1355 99.7982 57.0581C99.897 56.9806 99.9799 56.8718 100.046 56.7316C100.112 56.5914 100.176 56.3977 100.239 56.1505C100.304 55.9033 100.356 55.6045 100.393 55.2541C100.433 54.8999 100.466 54.4664 100.492 53.9536C100.517 53.4408 100.532 52.8542 100.536 52.1938V51.8894H104.451V57.6668H103.895V52.3875H101.064V52.5424C101.064 53.2176 101.048 53.8171 101.015 54.3409C100.986 54.8611 100.945 55.3039 100.894 55.6691C100.846 56.0343 100.78 56.3461 100.696 56.6043C100.611 56.8589 100.525 57.0617 100.437 57.213C100.349 57.3606 100.239 57.4768 100.107 57.5617C99.974 57.6428 99.8473 57.6945 99.7265 57.7166C99.6091 57.7424 99.4659 57.7553 99.2967 57.7553C99.0878 57.7553 98.8768 57.7258 98.6639 57.6668ZM106.157 54.7671C106.157 54.3539 106.227 53.9628 106.367 53.5939C106.506 53.2213 106.695 52.9003 106.934 52.631C107.172 52.3617 107.461 52.1477 107.798 51.9891C108.139 51.8304 108.501 51.7511 108.883 51.7511C109.408 51.7511 109.872 51.8858 110.276 52.1551C110.683 52.4207 110.994 52.7822 111.207 53.2397C111.419 53.6972 111.526 54.21 111.526 54.7781C111.526 54.8703 111.522 54.946 111.515 55.005H106.741C106.789 55.6986 107.029 56.252 107.462 56.6652C107.899 57.0747 108.411 57.2794 108.998 57.2794C109.755 57.2794 110.412 56.9787 110.97 56.3774L111.355 56.715C111.032 57.0655 110.683 57.3348 110.309 57.5229C109.938 57.7111 109.494 57.8051 108.976 57.8051C108.602 57.8051 108.242 57.7313 107.897 57.5838C107.556 57.4362 107.257 57.2333 107 56.9751C106.743 56.7131 106.537 56.3922 106.383 56.0122C106.233 55.6285 106.157 55.2135 106.157 54.7671ZM106.741 54.507H110.926C110.907 54.2081 110.85 53.9278 110.755 53.6658C110.659 53.4002 110.529 53.1622 110.364 52.9519C110.199 52.738 109.986 52.5701 109.725 52.4484C109.469 52.3229 109.18 52.2602 108.861 52.2602C108.296 52.2602 107.813 52.4742 107.413 52.9021C107.016 53.3301 106.792 53.865 106.741 54.507ZM113.133 57.6668V51.8894H113.69V55.5916L117.252 51.8894H117.984L115.468 54.4461L118.061 57.6668H117.362L115.088 54.8445L113.69 56.2612V57.6668H113.133ZM119.008 54.7781C119.008 54.2321 119.137 53.7285 119.394 53.2674C119.651 52.8025 120.003 52.4336 120.451 52.1606C120.903 51.8876 121.398 51.7511 121.938 51.7511C122.833 51.7511 123.597 52.1108 124.228 52.8302L123.843 53.2231C123.55 52.9206 123.254 52.6863 122.957 52.5203C122.663 52.3543 122.32 52.2713 121.927 52.2713C121.509 52.2713 121.121 52.3838 120.765 52.6089C120.409 52.8302 120.126 53.1346 119.917 53.5219C119.708 53.9056 119.603 54.3243 119.603 54.7781C119.603 55.4754 119.832 56.0675 120.291 56.5545C120.75 57.0378 121.31 57.2794 121.971 57.2794C122.657 57.2794 123.294 56.9511 123.881 56.2944L124.283 56.6597C123.964 57.0249 123.617 57.3071 123.242 57.5063C122.872 57.7055 122.437 57.8051 121.938 57.8051C121.394 57.8051 120.897 57.6705 120.446 57.4012C119.998 57.1282 119.645 56.7611 119.389 56.2999C119.135 55.8351 119.008 55.3278 119.008 54.7781Z" fill="white"/>
<path d="M40.2701 45.424C39.6864 45.8542 38.9762 46.1768 38.1395 46.392C37.3223 46.6266 36.4759 46.744 35.6004 46.744C34.4329 46.744 33.4406 46.5582 32.6234 46.1866C31.8256 45.8151 31.1738 45.2968 30.6679 44.632C30.162 43.9475 29.7923 43.1262 29.5588 42.168C29.3448 41.2098 29.2378 40.1538 29.2378 39C29.2378 36.5164 29.7923 34.6098 30.9014 33.28C32.0105 31.9306 33.6254 31.256 35.7463 31.256C36.8164 31.256 37.6726 31.344 38.3146 31.52C38.9762 31.696 39.5696 31.9208 40.095 32.1946L39.1902 35.304C38.7427 35.0888 38.2951 34.9226 37.8477 34.8053C37.4196 34.688 36.9234 34.6293 36.3592 34.6293C35.3085 34.6293 34.5107 34.9813 33.9659 35.6853C33.4211 36.3698 33.1487 37.4746 33.1487 39C33.1487 39.6258 33.2168 40.2026 33.353 40.7306C33.4892 41.2586 33.6935 41.7182 33.9659 42.1093C34.2383 42.5004 34.5885 42.8133 35.0166 43.048C35.4641 43.2631 35.9798 43.3706 36.5635 43.3706C37.2056 43.3706 37.7504 43.2924 38.1979 43.136C38.6454 42.96 39.0443 42.7546 39.3945 42.52L40.2701 45.424ZM51.3495 39.6453L51.4955 37.5626H51.4079L50.1529 39.704L44.9578 46.3333H42.5646V31.6666H46.3587V38.648L46.1836 40.6426H46.3004L47.497 38.56L52.7505 31.6666H55.1437V46.3333H51.3495V39.6453ZM68.9756 35.04H64.8604V46.3333H60.9495V35.04H56.8342V31.6666H68.9756V35.04ZM79.4524 39.6453L79.5983 37.5626H79.5108L78.2558 39.704L73.0607 46.3333H70.6674V31.6666H74.4616V38.648L74.2865 40.6426H74.4032L75.5999 38.56L80.8533 31.6666H83.2466V46.3333H79.4524V39.6453ZM109.741 35.04H105.13V46.3333H101.336V31.6666H113.535V46.3333H109.741V35.04ZM116.782 32.5173C117.56 32.1653 118.484 31.8915 119.554 31.696C120.624 31.4808 121.743 31.3733 122.911 31.3733C123.922 31.3733 124.769 31.5004 125.45 31.7546C126.13 31.9893 126.666 32.3315 127.055 32.7813C127.464 33.2311 127.746 33.7688 127.901 34.3946C128.077 35.0204 128.164 35.7244 128.164 36.5066C128.164 37.3671 128.135 38.2373 128.077 39.1173C128.018 39.9778 127.979 40.8284 127.96 41.6693C127.96 42.5102 127.989 43.3315 128.047 44.1333C128.106 44.9155 128.252 45.6586 128.485 46.3626H125.391L124.779 44.3386H124.633C124.243 44.9448 123.699 45.4728 122.998 45.9226C122.317 46.3528 121.431 46.568 120.342 46.568C119.661 46.568 119.048 46.4702 118.504 46.2746C117.958 46.0595 117.491 45.7662 117.103 45.3946C116.713 45.0035 116.411 44.5538 116.198 44.0453C115.984 43.5173 115.877 42.9306 115.877 42.2853C115.877 41.3858 116.071 40.6328 116.461 40.0266C116.869 39.4008 117.443 38.9022 118.183 38.5306C118.941 38.1395 119.836 37.8755 120.868 37.7386C121.918 37.5822 123.086 37.5333 124.37 37.592C124.506 36.4968 124.428 35.7146 124.136 35.2453C123.845 34.7564 123.193 34.512 122.181 34.512C121.422 34.512 120.614 34.5902 119.759 34.7466C118.921 34.9031 118.231 35.1084 117.686 35.3626L116.782 32.5173ZM121.597 43.4293C122.356 43.4293 122.959 43.2631 123.407 42.9306C123.854 42.5786 124.185 42.2071 124.399 41.816V39.9093C123.796 39.8506 123.212 39.8408 122.648 39.88C122.103 39.9191 121.617 40.0071 121.189 40.144C120.76 40.2808 120.42 40.4764 120.167 40.7306C119.914 40.9848 119.788 41.3075 119.788 41.6986C119.788 42.2462 119.943 42.6764 120.255 42.9893C120.585 43.2826 121.033 43.4293 121.597 43.4293ZM131.348 31.6666H134.121L134.558 33.4266H134.675C135.181 32.6835 135.774 32.136 136.456 31.784C137.156 31.432 138.002 31.256 138.995 31.256C140.824 31.256 142.195 31.8426 143.11 33.016C144.025 34.1698 144.482 36.0373 144.482 38.6186C144.482 39.8702 144.336 41.0044 144.044 42.0213C143.752 43.0186 143.314 43.8693 142.731 44.5733C142.166 45.2773 141.466 45.8151 140.629 46.1866C139.812 46.5582 138.868 46.744 137.798 46.744C137.195 46.744 136.699 46.6951 136.31 46.5973C135.92 46.5191 135.532 46.3822 135.142 46.1866V52.2H131.348V31.6666ZM137.857 34.4826C137.117 34.4826 136.533 34.6684 136.105 35.04C135.697 35.4115 135.376 35.9688 135.142 36.712V42.8133C135.415 43.0284 135.707 43.2044 136.018 43.3413C136.349 43.4586 136.777 43.5173 137.302 43.5173C138.392 43.5173 139.209 43.136 139.754 42.3733C140.298 41.5911 140.571 40.3102 140.571 38.5306C140.571 37.24 140.357 36.2426 139.929 35.5386C139.501 34.8346 138.81 34.4826 137.857 34.4826ZM151.925 40.2613H150.904V46.3333H147.11V31.6666H150.904V37.9146L151.809 37.504L155.223 31.6666H159.28L155.749 37.24L154.26 38.3546L155.895 39.4986L159.835 46.3333H155.486L151.925 40.2613Z" fill="white"/>
<path d="M92.3417 41.6666C93.8071 41.6666 94.995 40.4727 94.995 39C94.995 37.5272 93.8071 36.3333 92.3417 36.3333C90.8764 36.3333 89.6885 37.5272 89.6885 39C89.6885 40.4727 90.8764 41.6666 92.3417 41.6666Z" fill="#F1C650"/>
</svg>
