<svg width="188" height="90" viewBox="0 0 188 90" fill="none" xmlns="http://www.w3.org/2000/svg">
<rect width="188" height="90" fill="#F48B30"/>
<g clip-path="url(#clip0_139_2203)">
<path d="M71.649 49.4367C70.062 49.4367 69.4201 48.31 69.4201 46.3557V40.9508H74.0206V38.891H69.4201V35.4403H67.1912V46.567C67.1912 49.736 68.3145 51.4966 71.1319 51.4966C72.5228 51.4966 73.664 51.0036 74.3416 50.4579L73.6461 48.7501C73.1825 49.067 72.5228 49.4367 71.649 49.4367ZM81.2602 38.6093C79.691 38.6093 78.1932 39.0494 77.0698 39.736L77.6582 41.4966C78.6568 40.9684 79.584 40.5811 81.1175 40.5811C83.5961 40.5811 83.9705 42.1832 83.9705 44.4896C83.1325 43.891 81.8308 43.6973 80.85 43.6973C78.1397 43.6973 76.1069 45.1058 76.1069 47.641C76.1069 50.0353 77.676 51.4614 79.9585 51.4614C82.0269 51.4614 83.2216 50.6163 83.9705 49.6656V51.2677H86.0747V43.6621C86.0747 40.4579 84.8265 38.6093 81.2602 38.6093ZM83.9527 47.8874C83.3108 48.6269 82.3657 49.4896 80.7252 49.4896C79.2809 49.4896 78.4606 48.7149 78.4606 47.5353C78.4606 46.1093 79.798 45.4931 81.1353 45.4931C82.2231 45.4931 83.1681 45.7748 83.9527 46.3205V47.8874ZM96.1137 38.6093C94.3841 38.6093 92.7079 39.3487 91.852 40.3522V38.891H89.6231V56.7959H91.852V50.7043C92.7436 51.2853 94.0631 51.5494 95.4005 51.5494C99.3412 51.5494 101.927 48.6621 101.927 44.8769C101.909 41.2325 99.68 38.6093 96.1137 38.6093ZM95.1865 49.4896C93.9918 49.4896 92.9576 49.2607 91.8342 48.5212V42.3769C92.6188 41.4086 93.974 40.6691 95.454 40.6691C98.0395 40.6691 99.5196 42.4649 99.5196 44.9649C99.5374 47.5881 97.8612 49.4896 95.1865 49.4896ZM116.228 38.6269L112.554 39.5072C111.698 38.9262 110.611 38.5917 109.38 38.5917C106.224 38.5917 104.245 40.6515 104.245 43.1339C104.245 44.9473 105.279 46.4966 107.062 47.2008C106.83 47.4825 106.723 47.8698 106.723 48.2396C106.723 48.5917 106.813 48.979 107.027 49.2607C104.619 49.7536 103.015 51.0212 103.015 53.0283C103.015 55.7219 105.743 56.9719 109.398 56.9719C113.054 56.9719 115.782 55.6691 115.782 53.0283C115.782 50.3346 113.054 49.0318 109.398 49.0318C109.149 49.0318 108.899 49.067 108.649 49.067C108.489 48.8381 108.4 48.5388 108.4 48.2396C108.4 48.0107 108.435 47.7642 108.542 47.5529C108.828 47.5881 109.095 47.5881 109.38 47.5881C112.483 47.5881 114.516 45.5987 114.516 43.1339C114.516 42.3593 114.32 41.6198 113.927 40.986L116.299 40.405L116.228 38.6269ZM109.398 50.8628C112.073 50.8628 113.696 51.6903 113.696 53.0635C113.696 54.4719 112.002 55.2114 109.398 55.2114C106.813 55.2114 105.101 54.4367 105.101 53.0635C105.101 51.6903 106.723 50.8628 109.398 50.8628ZM109.38 45.8276C107.544 45.8276 106.349 44.7008 106.349 43.1515C106.349 41.6022 107.544 40.405 109.38 40.405C111.253 40.405 112.412 41.6198 112.412 43.1515C112.412 44.7536 111.128 45.8276 109.38 45.8276ZM123.806 38.6093C119.687 38.6093 117.333 41.479 117.333 45.0881C117.333 48.9966 119.99 51.567 124.056 51.567C125.732 51.567 127.551 51.0388 128.763 49.9473L128.068 48.2043C127.265 48.9438 125.839 49.5072 124.216 49.5072C121.755 49.5072 120.026 48.1339 119.83 45.7924H129.476C129.566 45.405 129.619 44.9121 129.619 44.3135C129.619 40.8628 127.033 38.6093 123.806 38.6093ZM119.705 43.979C119.954 42.0776 121.399 40.6691 123.699 40.6691C125.874 40.6691 127.212 41.9367 127.319 43.979H119.705ZM134.719 40.3346V38.8734H132.49V51.2677H134.719V42.4825C135.2 41.567 135.896 40.7219 137.34 40.7219C138.089 40.7219 138.428 40.8276 139.034 41.1973L139.819 39.1374C139.408 38.8381 138.891 38.6621 137.875 38.6621C136.27 38.6621 135.361 39.4015 134.719 40.3346ZM142.19 51.2677H144.419V38.8734H142.19V51.2677ZM143.367 32.905C142.582 32.905 141.923 33.4332 141.923 34.2255C141.923 35.141 142.6 35.6515 143.367 35.6515C144.062 35.6515 144.74 35.1234 144.74 34.2255C144.722 33.4332 144.062 32.905 143.367 32.905ZM154.726 38.6621C153.085 38.6621 151.498 39.4543 150.624 40.405V38.891H148.396V51.2853H150.624V42.3417C151.427 41.4262 152.746 40.7396 154.173 40.7396C156.509 40.7396 157.721 41.9543 157.721 44.5424V51.2853H159.95V44.1198C159.95 40.229 157.989 38.6621 154.726 38.6621ZM175 44.2783C175 40.8628 172.414 38.6093 169.169 38.6093C165.05 38.6093 162.696 41.479 162.696 45.0881C162.696 48.9966 165.353 51.567 169.419 51.567C171.095 51.567 172.914 51.0388 174.126 49.9473L173.431 48.2043C172.628 48.9438 171.202 49.5072 169.579 49.5072C167.119 49.5072 165.389 48.1339 165.193 45.7924H174.84C174.947 45.3874 175 44.8945 175 44.2783ZM165.068 43.979C165.318 42.0776 166.762 40.6691 169.062 40.6691C171.238 40.6691 172.575 41.9367 172.682 43.979H165.068Z" fill="white"/>
<path d="M54.4239 43.9261C54.4239 43.8908 54.4239 43.838 54.406 43.8028C54.2634 41.4261 53.7106 39.1725 52.8012 37.0775C50.7862 48.4331 40.7293 57.0423 28.6396 57.0423C23.9143 57.0423 19.4921 55.7218 15.7475 53.4331C15.9436 53.8556 16.1576 54.2782 16.3894 54.6831C16.3894 54.6831 16.3894 54.6831 16.3894 54.7007C16.6212 55.088 16.853 55.4754 17.1027 55.8627C17.1205 55.8803 17.1205 55.8979 17.1383 55.9155C17.6376 56.6725 18.1904 57.3768 18.7788 58.0634C18.8145 58.0986 18.8323 58.1338 18.868 58.169C19.4564 58.838 20.0984 59.4542 20.7581 60.0352C20.8116 60.0704 20.8473 60.1056 20.9008 60.1585C21.5605 60.7218 22.2738 61.25 23.0049 61.7254C23.0584 61.7606 23.1297 61.7958 23.201 61.8486C23.5398 62.0599 23.8786 62.2711 24.2352 62.4648C24.2709 62.4824 24.3066 62.5 24.3422 62.5352C24.7167 62.7465 25.109 62.9401 25.5013 63.1162C25.5726 63.1514 25.6439 63.1866 25.7153 63.2218C26.054 63.3803 26.3928 63.5211 26.7495 63.6444C26.8208 63.6796 26.91 63.6972 26.9813 63.7324C27.3914 63.8732 27.8015 64.0141 28.2117 64.1373C28.283 64.1549 28.3543 64.1725 28.4435 64.2077C28.8001 64.3134 29.1567 64.4014 29.5133 64.4894C29.6203 64.507 29.7095 64.5423 29.8165 64.5599C30.2444 64.6479 30.6724 64.7359 31.1003 64.7887C31.1538 64.7887 31.2073 64.8063 31.2787 64.8063C31.6709 64.8592 32.0454 64.8944 32.4377 64.9296C32.5625 64.9472 32.6695 64.9472 32.7943 64.9472C33.2401 64.9824 33.6859 65 34.1495 65C45.3655 65 54.4595 56.0563 54.4595 45.0176C54.4417 44.6127 54.4417 44.2782 54.4239 43.9261ZM49.4489 31.8486C48.2185 30.4577 46.7742 29.2254 45.1872 28.2042C41.7814 32.3239 36.5746 34.9648 30.7437 34.9648C26.482 34.9648 22.5591 33.5563 19.4208 31.1796C16.5321 34.2077 14.5706 38.081 14 42.412C17.7981 44.8239 22.3094 46.2148 27.1596 46.2148C37.1274 46.2148 45.7043 40.3169 49.4489 31.8486ZM41.6031 26.3908C39.285 25.493 36.7707 25 34.1317 25C31.136 25 28.283 25.6514 25.7331 26.7958C28.0512 27.5176 30.5119 27.9225 33.0796 27.9225C36.0753 27.9049 38.9462 27.3592 41.6031 26.3908Z" fill="white"/>
</g>
<defs>
<clipPath id="clip0_139_2203">
<rect width="161" height="40" fill="white" transform="translate(14 25)"/>
</clipPath>
</defs>
</svg>
